<?xml version="1.0" encoding="utf-8"?>
<!-- Generator: Adobe Illustrator 24.3.0, SVG Export Plug-In . SVG Version: 6.00 Build 0)  -->
<svg version="1.1" id="Camada_1" xmlns="http://www.w3.org/2000/svg" xmlns:xlink="http://www.w3.org/1999/xlink" x="0px" y="0px"
	 viewBox="0 0 177 150" style="enable-background:new 0 0 177 150;" xml:space="preserve">
<style type="text/css">
	.st0{fill:#CF602C;}
</style>
<g>
	<path class="st0" d="M40.9,6.6c-4.5,0-8.2,3.7-8.2,8.2v120.5c0,4.5,3.7,8.2,8.2,8.2h72.8v-16c0-7.1,5.7-12.8,12.8-12.8h17.8V14.7
		c0-4.5-3.7-8.2-8.2-8.2H40.9z M123,81.2H54v-5.6h69V81.2z M123,61.6H54V56h69V61.6z M123,42H54v-5.6h69V42z"/>
	<path class="st0" d="M118.3,127.4v12.9l22.4-21.1h-14.2C122,119.2,118.3,122.9,118.3,127.4z"/>
</g>
</svg>
