<?xml version="1.0" encoding="utf-8"?>
<!-- Generator: Adobe Illustrator 25.2.3, SVG Export Plug-In . SVG Version: 6.00 Build 0)  -->
<svg version="1.1" id="Camada_1" xmlns="http://www.w3.org/2000/svg" xmlns:xlink="http://www.w3.org/1999/xlink" x="0px" y="0px"
	 viewBox="0 0 177 150" style="enable-background:new 0 0 177 150;" xml:space="preserve">
<style type="text/css">
	.st0{fill:#CF602C;}
</style>
<g>
	<path class="st0" d="M129,23.9c0.1-7.2-3.3-13.6-8.6-17.7c-0.8-0.6-1.9,0-1.9,0.9v15.2l-11.4,7l-11.4-7V7.2c0-1-1.1-1.5-1.9-0.9
		c-5.2,3.9-8.5,10.1-8.6,17.1c-0.1,9.1,5.3,17,13.2,20.4v61.9c-7.7,3.3-13.1,10.9-13.2,19.8c-0.1,7.2,3.3,13.6,8.6,17.7
		c0.8,0.6,1.9,0,1.9-0.9V127l11.4-7l11.4,7v15.2c0,1,1.1,1.5,1.9,0.9c5.2-3.9,8.5-10.1,8.6-17.1c0.1-9.1-5.3-17-13.2-20.4V43.7
		C123.4,40.4,128.9,32.8,129,23.9z"/>
	<path class="st0" d="M71.9,69.5H65V28.8l3-4.7L64.4,6h-7.2l-3.6,18.1l3,4.7v40.7h-6.8c-0.9,0-1.7,0.9-1.7,1.9v3.3
		c0,1.1,0.8,1.9,1.7,1.9h0.4c-1.3,2.2-2.1,4.9-2.1,7.8v45.8c0,7.8,5.5,14,12.3,14h0.9c6.8,0,12.3-6.3,12.3-14V84.4
		c0-2.9-0.8-5.5-2.1-7.8h0.4c0.9,0,1.7-0.9,1.7-1.9v-3.3C73.6,70.4,72.8,69.5,71.9,69.5z M54.1,134.8h-2.8V84.4h2.8V134.8z
		 M62,134.8h-2.8V84.4H62V134.8z M70,134.8h-2.8V84.4H70V134.8z"/>
</g>
</svg>
