<?xml version="1.0" encoding="utf-8"?>
<!-- Generator: Adobe Illustrator 24.3.0, SVG Export Plug-In . SVG Version: 6.00 Build 0)  -->
<svg version="1.1" id="Camada_1" xmlns="http://www.w3.org/2000/svg" xmlns:xlink="http://www.w3.org/1999/xlink" x="0px" y="0px"
	 viewBox="0 0 177 150" style="enable-background:new 0 0 177 150;" xml:space="preserve">
<style type="text/css">
	.st0{fill:#CF602C;}
</style>
<g>
	<path class="st0" d="M66.4,67.6l3.7-4.1c3-3.4,4.6-7.7,4.3-12.2c-0.2-4.5-2.2-8.7-5.5-11.7L62.7,34c-3.1-2.8-7.1-4.4-11.3-4.4
		c-4.8,0-9.3,2-12.5,5.6l-3.7,4.1c-0.5,0.5-0.9,1.1-1.4,1.7l-0.2,0.2c-3.5,3-6.4,10.2-4.7,19c7.9,41.2,42.6,72.5,84.3,76.3
		c5.5,0.5,10.6-0.6,14.5-3c1.6-0.9,2.9-2,4.1-3.3l3.7-4.1c6.3-6.9,5.7-17.6-1.2-23.9l-6.2-5.6c-3.1-2.8-7.1-4.4-11.3-4.4
		c-4.8,0-9.3,2-12.5,5.6l-3.7,4.1c-1.6,1.7-2.7,3.7-3.5,5.9l-0.3,1l-1-0.4c-16.4-6.5-29.8-18.7-37.6-34.5l-0.5-1l1.1-0.3
		C61.7,71.5,64.4,69.8,66.4,67.6z"/>
	<path class="st0" d="M87.1,18.8c0,2.2,1.8,3.9,3.9,3.9c27.6,0,50.1,22.5,50.1,50.1c0,2.2,1.8,3.9,3.9,3.9c2.2,0,3.9-1.8,3.9-3.9
		c0-32-26-58-58-58C88.8,14.8,87.1,16.6,87.1,18.8z"/>
	<path class="st0" d="M86.4,38.1c0,2.2,1.8,3.9,3.9,3.9c17.3,0,31.5,14.1,31.5,31.5c0,2.2,1.8,3.9,3.9,3.9c2.2,0,3.9-1.8,3.9-3.9
		c0-21.7-17.6-39.3-39.3-39.3C88.2,34.1,86.4,35.9,86.4,38.1z"/>
</g>
</svg>
