<?xml version="1.0" encoding="utf-8"?>
<!-- Generator: Adobe Illustrator 24.3.0, SVG Export Plug-In . SVG Version: 6.00 Build 0)  -->
<svg version="1.1" id="Camada_1" xmlns="http://www.w3.org/2000/svg" xmlns:xlink="http://www.w3.org/1999/xlink" x="0px" y="0px"
	 viewBox="0 0 177 150" style="enable-background:new 0 0 177 150;" xml:space="preserve">
<style type="text/css">
	.st0{fill:#CF602C;}
</style>
<g>
	<path class="st0" d="M80.2,17.3C60.9,19.2,42.6,28,41.8,49.1C40.8,73,60.7,79.9,80.2,84.7l0,26.4c-9.6-4.2-10-15.5-10-15.5
		l-32.8,3.7c2.5,23.1,22.4,31.6,42.8,32.9l0,8.8h6.8V8.9h-6.9V17.3z M80.2,55.9c-0.7-0.3-1.3-0.6-1.9-0.9
		c-8.5-4.4-7.4-13.3,1.9-16.5L80.2,55.9z"/>
	<path class="st0" d="M130.4,75.8c-9.8-8.7-23.2-12.5-34.4-15.4V39c6.7,3.2,8.1,9.8,8.1,9.8l31.9-5.3c-3.6-14.7-19.2-24.5-40-26.3
		l0-8.3h-5.5v132.2H96V132c11.3-1.1,21.3-4,26.7-7.2C139.7,114.5,146.5,90,130.4,75.8z M96,112l0-23c7.8,2.7,10.6,5.3,11.8,9.7
		C109.3,104,105.5,109.9,96,112z"/>
</g>
</svg>
