<?xml version="1.0" encoding="utf-8"?>
<!-- Generator: Adobe Illustrator 25.2.3, SVG Export Plug-In . SVG Version: 6.00 Build 0)  -->
<svg version="1.1" id="Camada_1" xmlns="http://www.w3.org/2000/svg" xmlns:xlink="http://www.w3.org/1999/xlink" x="0px" y="0px"
	 viewBox="0 0 177 150" style="enable-background:new 0 0 177 150;" xml:space="preserve">
<style type="text/css">
	.st0{fill:#CF602C;}
</style>
<path class="st0" d="M130.2,131c2.3,0,4.1-1.8,4.1-4.1V82.6h10.9h0c4,0,7.2-3.2,7.2-7.2c0-2.3-1.1-4.3-2.7-5.6l-14.1-12.2V37.4
	c0-2.4-1.9-4.3-4.3-4.3h-8.9c-2.4,0-4.3,1.9-4.3,4.3v5.1l-25-21.7c-2.7-2.3-6.7-2.3-9.4,0L27.1,70c-2.3,2-3.1,5.1-2,7.9
	c1.1,2.8,3.7,4.7,6.7,4.7h10.9v44.2c0,2.3,1.9,4.1,4.1,4.1h24.4V98.8c0-4.5,3.7-8.2,8.2-8.2h18.1c4.5,0,8.2,3.7,8.2,8.2V131H130.2z"
	/>
</svg>
