<?xml version="1.0" encoding="utf-8"?>
<!-- Generator: Adobe Illustrator 24.3.0, SVG Export Plug-In . SVG Version: 6.00 Build 0)  -->
<svg version="1.1" id="Camada_1" xmlns="http://www.w3.org/2000/svg" xmlns:xlink="http://www.w3.org/1999/xlink" x="0px" y="0px"
	 viewBox="0 0 177 150" style="enable-background:new 0 0 177 150;" xml:space="preserve">
<style type="text/css">
	.st0{fill:#CF602C;}
</style>
<g>
	<path class="st0" d="M154.5,44.1c-4.4-1-8.7,1.7-9.7,6.1L135.4,91l-70.7-0.7l-17-68.1c-0.6-2.2-2-4.1-4-5.1L28.3,8.6
		c-3.9-2.2-8.9-0.7-11,3.2c-2.2,3.9-0.7,8.9,3.2,11l12.4,6.8L50.1,99l-9.3,7.4c-1.1,0.9-1.8,2.2-1.8,3.6v11.6c0,2.5,2,4.6,4.6,4.6
		l13.1,0.2c-1.8,1.7-3,4.1-3,6.8c0,5.1,4.2,9.3,9.3,9.3c5.1,0,9.3-4.1,9.3-9.3c0-2.6-1.1-4.9-2.8-6.6l61.2,0.9c-1.3,1.6-2,3.6-2,5.7
		c0,5.1,4.2,9.3,9.3,9.3s9.3-4.1,9.3-9.3c0-2.1-0.7-4-1.9-5.5l8,0.1c0,0,0,0,0.1,0c2.5,0,4.6-2,4.6-4.6c0-2.6-2-4.7-4.6-4.7
		L48.3,117v-4.8l7.7-6.1c0.7,0.2,1.5,0.4,2.3,0.4l83.5,0.8c0,0,0.1,0,0.1,0c3.8,0,7.1-2.6,7.9-6.3l10.8-47.1
		C161.6,49.5,158.8,45.1,154.5,44.1z"/>
	<path class="st0" d="M119.3,47.4h-7.5V25.6c0-2.7-2.2-4.8-4.8-4.8H92.4c-2.7,0-4.8,2.2-4.8,4.8v21.8H80c-3.3,0-4.4,2.2-2.4,4.9
		l5.6,7.5c2,2.7,5.3,7.1,7.3,9.7l5.6,7.5c2,2.7,5.3,2.7,7.3,0l5.6-7.5c2-2.7,5.3-7.1,7.3-9.7l5.6-7.5
		C123.8,49.6,122.7,47.4,119.3,47.4z"/>
</g>
</svg>
