<?xml version="1.0" encoding="utf-8"?>
<!-- Generator: Adobe Illustrator 25.2.3, SVG Export Plug-In . SVG Version: 6.00 Build 0)  -->
<svg version="1.1" id="Camada_1" xmlns="http://www.w3.org/2000/svg" xmlns:xlink="http://www.w3.org/1999/xlink" x="0px" y="0px"
	 viewBox="0 0 177 150" style="enable-background:new 0 0 177 150;" xml:space="preserve">
<style type="text/css">
	.st0{fill:#CF602C;}
</style>
<g>
	<g>
		<path class="st0" d="M43.5,32.6c-14.4,0-26,11.7-26,26c0,14.4,11.7,26,26,26c9.3,0,17.5-5,22.1-12.4c-3.6-5.9-8.3-16.4-2.8-31
			C58,36,51.1,32.6,43.5,32.6z"/>
		<path class="st0" d="M61.3,81c-0.3,0.3-0.7,0.5-1.1,0.8c-2.6,6.8-9.1,11.6-16.7,11.6c-7.7,0-14.3-4.9-16.8-11.7
			c-0.8-0.6-1.4-1.1-1.8-1.4c-0.1-0.1-0.3-0.2-0.4-0.3l-0.2,0.2c-16.2,14-16,38.5-16,39.6l0,0.9h41.2c0.6-9.5,3.4-26.4,14.8-38.9
			c-0.8-0.8-1.5-1.3-2-1.6c-0.2,0.2-0.5,0.4-0.7,0.6C61.5,80.8,61.4,80.9,61.3,81z"/>
	</g>
	<g>
		<path class="st0" d="M114.8,79.2c-0.3,0.2-0.5,0.5-0.8,0.7c-0.1,0.1-0.3,0.2-0.4,0.3c-2.5,2-8.4,5.8-16.1,7.1
			c-0.8,0.1-1.5,0.2-2.3,0.3c-0.7,0-1.3,0.1-2,0.1c-2.4,0-4.8-0.3-7.1-0.8c-7.2-1.8-12.7-6.1-14.2-7.4c-0.1-0.1-0.3-0.3-0.5-0.4
			l-0.3,0.2c-18.6,16-18.3,44.1-18.3,45.3l0,1h79.4l0-1.1C130.9,92.1,117.9,81.4,114.8,79.2z M103.7,101.2l-11.2-5.7l-11.2,5.7V87.4
			l11.2,6l11.2-6V101.2z"/>
	</g>
	<g>
		<g>
			<path class="st0" d="M63.5,54.2c0,16.4,13.4,29.8,29.8,29.8h0c8,0,15.4-3.1,21.1-8.7c5.6-5.6,8.7-13.1,8.7-21.1
				c0-16.4-13.4-29.8-29.8-29.8C76.9,24.4,63.5,37.8,63.5,54.2z"/>
		</g>
	</g>
	<path class="st0" d="M135.3,119.1l33.5,0l0-0.8c0-0.9-0.3-21.8-14.9-34.4l-0.2-0.2c-0.5,0.4-1,0.9-1.5,1.3l-10.4,20.2L140,93.4
		l2.9-4.8c-1.9,0.5-3.8,0.7-5.9,0.7c-0.5,0-1,0-1.6-0.1c-0.9-0.1-1.9-0.2-2.8-0.3c-0.4-0.1-0.7-0.1-1.1-0.2l2.9,4.7l-1.9,11.3
		C134.2,110.2,134.9,115.5,135.3,119.1z"/>
	<path class="st0" d="M138.1,86.2c12.9,0,23.4-10.5,23.4-23.4c0-12.9-10.5-23.4-23.4-23.4c-5.2,0-10.1,1.7-14,4.7
		c1.2,3.3,1.9,7,1.9,10.7c0,7.8-2.9,15-7.6,20.5C122.5,81.8,129.8,86.2,138.1,86.2z"/>
</g>
</svg>
