<?xml version="1.0" encoding="utf-8"?>
<!-- Generator: Adobe Illustrator 25.2.3, SVG Export Plug-In . SVG Version: 6.00 Build 0)  -->
<svg version="1.1" id="Camada_1" xmlns="http://www.w3.org/2000/svg" xmlns:xlink="http://www.w3.org/1999/xlink" x="0px" y="0px"
	 viewBox="0 0 177 150" style="enable-background:new 0 0 177 150;" xml:space="preserve">
<style type="text/css">
	.st0{fill:#FF8955;}
</style>
<path class="st0" d="M134.7,64.5h-2.8c-2.3-5-9.2-18.6-17.6-23c-2.8-1.5-13.1-6.3-26.2-6.1c-10.3,0.2-23.9,3.2-30,8.4
	c-4.8,4.1-11,15.3-13,20.7h-2.8c-0.2,0.4-21.2,4.4-27.4,10.6c-6.5,6.7-7.4,24.5-1.2,24.5c1.7,0,8.7,0,19.8,0c0,0.4-0.1,0.8-0.1,1.2
	c0,7.5,6.1,13.7,13.7,13.7c7.5,0,13.7-6.1,13.7-13.7c0-0.4,0-0.8-0.1-1.2c10.1,0,21.5,0,34.1,0c2,0,4,0,6,0c5.5,0,11.1,0,16.4,0
	c0,0.4-0.1,0.8-0.1,1.2c0,7.5,6.1,13.7,13.7,13.7c7.5,0,13.7-6.1,13.7-13.7c0-0.4,0-0.8-0.1-1.2c10,0,17.1,0,18.9,0
	c6.2,0,5.3-17.9-1.2-24.5C155.9,68.9,134.9,64.9,134.7,64.5z M82.4,64.5H57.7c2.2-4.3,5.8-10.2,7.9-12c2.3-2,9.2-4.2,16.8-5.2V64.5z
	 M100.8,64.5h-6h-0.8V47.2c7.6,0.8,13.3,3.5,15.1,4.5c3,1.6,7,7.3,10,12.8H100.8z"/>
</svg>
