<?xml version="1.0" encoding="utf-8"?>
<!-- Generator: Adobe Illustrator 25.2.3, SVG Export Plug-In . SVG Version: 6.00 Build 0)  -->
<svg version="1.1" id="Camada_1" xmlns="http://www.w3.org/2000/svg" xmlns:xlink="http://www.w3.org/1999/xlink" x="0px" y="0px"
	 viewBox="0 0 177 150" style="enable-background:new 0 0 177 150;" xml:space="preserve">
<style type="text/css">
	.st0{fill:#FBF400;}
</style>
<g>
	<g>
		<path class="st0" d="M147,11.3c-3.6-0.7-8.2-1.2-13.8-1.5c-5.8-0.2-9.9,0-12.5,0.8c-2.6,0.8-6.7,3.2-12.7,7.3
			c-5.8,4-13.4,10.6-22.8,19.6c-9.3,8.9-17.8,17.8-25.1,26.2c-6.5,7.6-13.3,16-20.3,25c0,0,0-0.1-0.1-0.1c-0.7,0.7-1.3,1.4-1.9,2.1
			c-0.1,0.1-0.1,0.1-0.2,0.2c-6.7,8-16,22.7-12.9,34.1c0.2,0.3,0.3,0.6,0.5,0.9c1.1,0.6,2.1,1.3,3.1,2c1.3,0.5,2.5,0.9,3.8,1.4
			c1.3,0.1,2.6,0.2,3.9,0.3c7-0.9,13.4-2.8,19.5-5.9c1.1-1,2.1-2,3.2-2.9c0.1-0.1,0.2-0.2,0.2-0.3c11.1-16.8,25-33.9,41.3-50.8
			c16.3-16.9,31.4-29.6,45-37.9c3.3-2,5.4-3.4,6.6-4.6c1.3-1.3,2.1-3,2.5-5c0.5-2.5,0.1-4.8-1.3-6.9C151.8,13.2,149.7,11.8,147,11.3
			z"/>
	</g>
	<g>
		<path class="st0" d="M128.7,95.9c-3.8-5.5-10.1-12.8-18.6-21.7c-8.5-8.9-16.9-16.9-25-23.9C78.2,44.4,70.6,38.2,62.5,32
			c-0.5-0.1-0.9-0.4-1.4-0.9c-6.9-6.8-14.4-10.5-23.3-13.9c-0.3-0.1-0.5-0.3-0.8-0.4c-3.8-0.9-7.5-1.1-10.9,0
			c-0.4,0.2-0.9,0.5-1.3,0.8c-0.7,1.8-1.3,3.6-2,5.4c-0.1,0.5-0.2,1-0.3,1.5c-0.1,1-0.2,2-0.2,3c0.8,5.9,2.3,11.3,4.7,16.5
			c0.9,1.7,2,3.3,3.2,4.7c0.3,0.2,0.6,0.4,0.9,0.6C47,59.8,63.3,73,79.4,88.5c16.1,15.5,28.2,29.9,36,42.9c1.9,3.2,3.3,5.2,4.4,6.2
			c1.3,1.2,2.8,2,4.7,2.4c2.4,0.5,4.6,0.1,6.6-1.2c2-1.3,3.3-3.3,3.9-5.9c0.7-3.4,1.2-7.8,1.4-13.1c0.2-5.5,0-9.4-0.8-11.9
			C134.9,105.5,132.6,101.5,128.7,95.9z"/>
	</g>
</g>
</svg>
