<?xml version="1.0" encoding="utf-8"?>
<!-- Generator: Adobe Illustrator 25.2.3, SVG Export Plug-In . SVG Version: 6.00 Build 0)  -->
<svg version="1.1" id="Camada_1" xmlns="http://www.w3.org/2000/svg" xmlns:xlink="http://www.w3.org/1999/xlink" x="0px" y="0px"
	 viewBox="0 0 177 150" style="enable-background:new 0 0 177 150;" xml:space="preserve">
<style type="text/css">
	.st0{fill:#33FF66;}
</style>
<g>
	<path class="st0" d="M141.2,9.7c-3.1,0-7.1,0.4-11.8,1.1c-4.9,0.8-8.3,1.7-10.3,2.8c-2,1.1-5.1,3.8-9.4,8.3
		c-4.1,4.4-9.4,11.2-15.8,20.3c-6.3,9.1-11.9,17.9-16.5,26.3C73.3,76,69,84.2,64.8,93c-3-3.8-6.1-6.8-9.4-9c-4.1-2.8-8-4.2-11.7-4.2
		c-3.7,0-7.8,1.6-12.1,4.8c-4.5,3.3-6.7,7.1-6.7,11.3c0,3.1,1.9,6.8,5.9,11.1c5.8,6.4,10.5,12.3,13.9,17.6c2.6,3.9,4.3,6.4,5.4,7.6
		c1.2,1.3,2.7,2.3,4.5,3c1.7,0.6,4.6,0.9,8.8,0.9c5.7,0,9.6-0.6,11.9-1.9c2.3-1.3,4.1-3.1,5.4-5.3c1.2-2.1,3-6.1,5.6-12.5
		c6.4-16,15.1-32.7,25.9-49.6c10.7-16.9,21.3-30.2,31.2-39.4c2.5-2.2,3.9-3.8,4.7-5c0.8-1.3,1.3-2.9,1.3-4.6c0-2.2-0.8-4.1-2.3-5.6
		C145.6,10.5,143.6,9.7,141.2,9.7z"/>
</g>
</svg>
