<?xml version="1.0" encoding="utf-8"?>
<!-- Generator: Adobe Illustrator 25.2.3, SVG Export Plug-In . SVG Version: 6.00 Build 0)  -->
<svg version="1.1" id="Camada_1" xmlns="http://www.w3.org/2000/svg" xmlns:xlink="http://www.w3.org/1999/xlink" x="0px" y="0px"
	 viewBox="0 0 177 150" style="enable-background:new 0 0 177 150;" xml:space="preserve">
<style type="text/css">
	.st0{fill:#CF602C;}
</style>
<g>
	<path class="st0" d="M149.5,3.9c-3.5,0-8,0.4-13.3,1.3c-5.5,0.9-9.3,1.9-11.6,3.1c-2.3,1.2-5.7,4.3-10.6,9.3
		c-4.7,4.9-10.6,12.6-17.8,22.9c-7.1,10.2-13.4,20.2-18.6,29.6c-4.7,8.4-9.5,17.7-14.3,27.6c-3.4-4.3-6.9-7.7-10.5-10.2
		c-4.6-3.2-9.1-4.8-13.2-4.8c-4.2,0-8.8,1.8-13.6,5.4c-5,3.8-7.6,8-7.6,12.7c0,3.5,2.2,7.6,6.7,12.6c6.5,7.2,11.8,13.8,15.7,19.8
		c2.9,4.4,4.9,7.2,6,8.5c1.3,1.5,3,2.6,5.1,3.3c1.9,0.7,5.2,1,9.9,1c6.5,0,10.9-0.7,13.5-2.1c2.6-1.4,4.6-3.4,6.1-6
		c1.3-2.3,3.4-6.9,6.3-14.1c7.2-18,17-36.8,29.2-55.9c12.1-19.1,24-34,35.2-44.4c2.8-2.5,4.4-4.3,5.3-5.6c1-1.5,1.4-3.2,1.4-5.2
		c0-2.4-0.9-4.6-2.6-6.3C154.4,4.7,152.2,3.9,149.5,3.9z"/>
</g>
</svg>
